<svg xmlns="http://www.w3.org/2000/svg" xmlns:xlink="http://www.w3.org/1999/xlink" width="390" height="844" viewBox="1960 0 390 844"><defs><clipPath id="clip-n26tvc9yqkbe7"><rect width="390" height="844"/></clipPath><filter id="fx-nsvllw21bc6zn" filterUnits="userSpaceOnUse" x="-31" y="-31" width="404" height="290"><feDropShadow in="SourceGraphic" dx="0" dy="4" stdDeviation="9" flood-color="#1c1b2e" flood-opacity="0.05"/></filter><filter id="fx-nwedyjg2zgfyy" filterUnits="userSpaceOnUse" x="-31" y="-31" width="404" height="298"><feDropShadow in="SourceGraphic" dx="0" dy="4" stdDeviation="9" flood-color="#1c1b2e" flood-opacity="0.05"/></filter></defs><g id="n26tvc9yqkbe7" data-name="05 Euro Account" transform="matrix(1 0 0 1 1960 0)"><rect width="390" height="844" fill="#f4f5f8"/><g clip-path="url(#clip-n26tvc9yqkbe7)"><rect width="390" height="844" fill="#f4f5f8"/><g id="njendrap69hrp" data-name="Status Bar" transform="matrix(1 0 0 1 30 14)"><text id="nc3bz5098bg8r" data-name="Time" transform="matrix(1 0 0 1 0 0)" font-family="Poppins, &quot;Helvetica Neue&quot;, Arial, sans-serif" font-size="15" font-weight="600" xml:space="preserve" fill="#0d0e1a"><tspan x="0" y="18.25">9:41</tspan></text><rect id="n0x1nxjkhetzw" data-name="Signal 1" transform="matrix(1 0 0 1 258 11)" width="3" height="4" rx="1" fill="#0d0e1a"/><rect id="nsikso02v8bsx" data-name="Signal 2" transform="matrix(1 0 0 1 263 8.5)" width="3" height="6.5" rx="1" fill="#0d0e1a"/><rect id="n9vs6dpzdarsx" data-name="Signal 3" transform="matrix(1 0 0 1 268 6)" width="3" height="9" rx="1" fill="#0d0e1a"/><rect id="nr4wghjmu7owe" data-name="Signal 4" transform="matrix(1 0 0 1 273 3.5)" width="3" height="11.5" rx="1" fill="#0d0e1a"/><path id="nxg61w5iamo34" data-name="Wi-Fi" transform="matrix(1 0 0 1 279.770833 3.742466)" d="M0 2.632534a9.916667 9.916667 0 0 1 13.458334 0M2.125 5.111701a6.729167 6.729167 0 0 1 9.208334 0M4.604167 7.590867a3.1875 3.1875 0 0 1 4.25 0M6.729167 10.070034h0.007083" fill="none" stroke="#0d0e1a" stroke-width="1.8" stroke-linecap="round" stroke-linejoin="round"/><rect id="n4wtfieocai57" data-name="Battery" transform="matrix(1 0 0 1 300 3)" width="24" height="12" rx="3.5" fill="#0d0e1a" fill-opacity="0" stroke="#0d0e1a" stroke-opacity="0.4" stroke-width="1"/><rect id="nwa4uwcp43t0w" data-name="Battery Level" transform="matrix(1 0 0 1 302 5)" width="18" height="8" rx="2" fill="#0d0e1a"/><rect id="ne7iilfmxexyi" data-name="Battery Cap" transform="matrix(1 0 0 1 325 7)" opacity="0.4" width="2" height="4" rx="1" fill="#0d0e1a"/></g><g id="nuoli3o2d5zzi" data-name="Nav Bar" transform="matrix(1 0 0 1 24 56)"><g id="njfggpuphnda3" data-name="Back" transform="matrix(1 0 0 1 0 0)"><ellipse id="nnkgruq0wkk8p" data-name="Background" transform="matrix(1 0 0 1 0 0)" cx="20" cy="20" rx="20" ry="20" fill="#ffffff"/><path id="nvvk4k02x9pdy" data-name="Icon" transform="matrix(1 0 0 1 16.666667 14.166667)" d="M5.833333 0l-5.833333 5.833333 5.833333 5.833333" fill="none" stroke="#0d0e1a" stroke-width="1.667" stroke-linecap="round" stroke-linejoin="round"/></g><text id="nhyruwnf5uwd4" data-name="Title" transform="matrix(1 0 0 1 116.5 8.5)" font-family="Inter, &quot;Helvetica Neue&quot;, Arial, sans-serif" font-size="17" font-weight="600" xml:space="preserve" fill="#0d0e1a"><tspan x="0" y="18.55">Euro account</tspan></text><g id="nnqd9e7b6e8l4" data-name="More" transform="matrix(1 0 0 1 302 0)"><ellipse id="n43m7y33nfmlx" data-name="Background" transform="matrix(1 0 0 1 0 0)" cx="20" cy="20" rx="20" ry="20" fill="#ffffff"/><path id="nmbcylvrx46gy" data-name="Icon" transform="matrix(1 0 0 1 13.583333 19)" d="M0 1a1 1 0 1 0 2 0 1 1 0 1 0-2 0zM5.416667 1a1 1 0 1 0 2 0 1 1 0 1 0-2 0zM10.833334 1a1 1 0 1 0 2 0 1 1 0 1 0-2 0z" fill="none" stroke="#0d0e1a" stroke-width="1.667" stroke-linecap="round" stroke-linejoin="round"/></g></g><g id="nj5z41yycntew" data-name="Flag / EU" transform="matrix(1 0 0 1 171 112)"><ellipse id="ns6udp8gdkbfq" data-name="Field" transform="matrix(1 0 0 1 0 0)" cx="24" cy="24" rx="24" ry="24" fill="#1f3fa6"/><path id="nmc3r67itwq0j" data-name="Star 1" transform="matrix(1 0 0 1 34.8 20.4)" d="M3.6 0 L4.536 2.6255 L7.2 2.7502 L5.1145 4.4975 L5.8249 7.2 L3.6 5.6544 L1.3751 7.2 L2.0855 4.4975 L0 2.7502 L2.664 2.6255 Z" fill="#ffcc00"/><path id="ntaui9qqmeb0c" data-name="Star 2" transform="matrix(1 0 0 1 32.870766 27.6)" d="M3.6 0 L4.536 2.6255 L7.2 2.7502 L5.1145 4.4975 L5.8249 7.2 L3.6 5.6544 L1.3751 7.2 L2.0855 4.4975 L0 2.7502 L2.664 2.6255 Z" fill="#ffcc00"/><path id="nul8zjw6wulou" data-name="Star 3" transform="matrix(1 0 0 1 27.6 32.870766)" d="M3.6 0 L4.536 2.6255 L7.2 2.7502 L5.1145 4.4975 L5.8249 7.2 L3.6 5.6544 L1.3751 7.2 L2.0855 4.4975 L0 2.7502 L2.664 2.6255 Z" fill="#ffcc00"/><path id="nn17veck358bp" data-name="Star 4" transform="matrix(1 0 0 1 20.4 34.8)" d="M3.6 0 L4.536 2.6255 L7.2 2.7502 L5.1145 4.4975 L5.8249 7.2 L3.6 5.6544 L1.3751 7.2 L2.0855 4.4975 L0 2.7502 L2.664 2.6255 Z" fill="#ffcc00"/><path id="nq0hwdtab5jyl" data-name="Star 5" transform="matrix(1 0 0 1 13.2 32.870766)" d="M3.6 0 L4.536 2.6255 L7.2 2.7502 L5.1145 4.4975 L5.8249 7.2 L3.6 5.6544 L1.3751 7.2 L2.0855 4.4975 L0 2.7502 L2.664 2.6255 Z" fill="#ffcc00"/><path id="nyxzflrkrjbsh" data-name="Star 6" transform="matrix(1 0 0 1 7.929234 27.6)" d="M3.6 0 L4.536 2.6255 L7.2 2.7502 L5.1145 4.4975 L5.8249 7.2 L3.6 5.6544 L1.3751 7.2 L2.0855 4.4975 L0 2.7502 L2.664 2.6255 Z" fill="#ffcc00"/><path id="nuv7ljw3lw30x" data-name="Star 7" transform="matrix(1 0 0 1 6 20.4)" d="M3.6 0 L4.536 2.6255 L7.2 2.7502 L5.1145 4.4975 L5.8249 7.2 L3.6 5.6544 L1.3751 7.2 L2.0855 4.4975 L0 2.7502 L2.664 2.6255 Z" fill="#ffcc00"/><path id="noh4zw4e0cgkn" data-name="Star 8" transform="matrix(1 0 0 1 7.929234 13.2)" d="M3.6 0 L4.536 2.6255 L7.2 2.7502 L5.1145 4.4975 L5.8249 7.2 L3.6 5.6544 L1.3751 7.2 L2.0855 4.4975 L0 2.7502 L2.664 2.6255 Z" fill="#ffcc00"/><path id="nvysce7e1uzel" data-name="Star 9" transform="matrix(1 0 0 1 13.2 7.929234)" d="M3.6 0 L4.536 2.6255 L7.2 2.7502 L5.1145 4.4975 L5.8249 7.2 L3.6 5.6544 L1.3751 7.2 L2.0855 4.4975 L0 2.7502 L2.664 2.6255 Z" fill="#ffcc00"/><path id="ni8b7k2g7oovz" data-name="Star 10" transform="matrix(1 0 0 1 20.4 6)" d="M3.6 0 L4.536 2.6255 L7.2 2.7502 L5.1145 4.4975 L5.8249 7.2 L3.6 5.6544 L1.3751 7.2 L2.0855 4.4975 L0 2.7502 L2.664 2.6255 Z" fill="#ffcc00"/><path id="n9etf11s3m2ar" data-name="Star 11" transform="matrix(1 0 0 1 27.6 7.929234)" d="M3.6 0 L4.536 2.6255 L7.2 2.7502 L5.1145 4.4975 L5.8249 7.2 L3.6 5.6544 L1.3751 7.2 L2.0855 4.4975 L0 2.7502 L2.664 2.6255 Z" fill="#ffcc00"/><path id="nipiosag14b5x" data-name="Star 12" transform="matrix(1 0 0 1 32.870766 13.2)" d="M3.6 0 L4.536 2.6255 L7.2 2.7502 L5.1145 4.4975 L5.8249 7.2 L3.6 5.6544 L1.3751 7.2 L2.0855 4.4975 L0 2.7502 L2.664 2.6255 Z" fill="#ffcc00"/><ellipse id="nv2zg95r638ku" data-name="Rim" transform="matrix(1 0 0 1 0 0)" cx="24" cy="24" rx="24" ry="24" fill="#ffffff" fill-opacity="0" stroke="#0d0e1a" stroke-opacity="0.08" stroke-width="1"/></g><text id="n1pnjtrynlqfa" data-name="Currency" transform="matrix(1 0 0 1 138 168)" font-family="Inter, &quot;Helvetica Neue&quot;, Arial, sans-serif" font-size="14" font-weight="400" xml:space="preserve" fill="#6b6e82"><tspan x="0" y="16.1">Euro · EUR · Main</tspan></text><g id="ncj9oc8a9fp3y" data-name="Balance" transform="matrix(1 0 0 1 107 190)"><text id="n4v4ocft9ryyl" data-name="Whole" transform="matrix(1 0 0 1 0 0)" font-family="&quot;DM Sans&quot;, &quot;Helvetica Neue&quot;, Arial, sans-serif" font-size="40" font-weight="700" letter-spacing="-0.8" xml:space="preserve" fill="#0d0e1a"><tspan x="0" y="46">€8,420</tspan></text><text id="n7bu56n0tnsgx" data-name="Cents" transform="matrix(1 0 0 1 140 15.68)" font-family="&quot;DM Sans&quot;, &quot;Helvetica Neue&quot;, Arial, sans-serif" font-size="24" font-weight="700" letter-spacing="-0.24" xml:space="preserve" fill="#0d0e1a"><tspan x="0" y="27.6">.55</tspan></text></g><g id="nlbbc7y1bpatu" data-name="Actions" transform="matrix(1 0 0 1 24 256)"><g id="n3ww54kdl079m" data-name="Button / Top up" transform="matrix(1 0 0 1 0 0)"><rect id="ngueid7pytmpw" data-name="Background" transform="matrix(1 0 0 1 0 0)" width="108.667" height="44" rx="22" fill="#3d5afe"/><path id="n3uhsyjyuqw7p" data-name="Icon" transform="matrix(1 0 0 1 22.583333 16.75)" d="M5.25 0v10.5M0 5.25h10.5" fill="none" stroke="#ffffff" stroke-width="1.5" stroke-linecap="round" stroke-linejoin="round"/><text id="nqiid4cied913" data-name="Label" transform="matrix(1 0 0 1 42.833333 12.5)" font-family="Inter, &quot;Helvetica Neue&quot;, Arial, sans-serif" font-size="14" font-weight="600" xml:space="preserve" fill="#ffffff"><tspan x="0" y="16.1">Top up</tspan></text></g><g id="nep2bg4qgk8wh" data-name="Button / Exchange" transform="matrix(1 0 0 1 116.666667 0)"><rect id="ncvhdeppwj4xg" data-name="Background" transform="matrix(1 0 0 1 0 0)" width="108.667" height="44" rx="22" fill="#ffffff"/><path id="naf8g01msgl6w" data-name="Icon" transform="matrix(1 0 0 1 12.208333 15.625)" d="M11.25 4.5A6 6 0 0 0 0.525 2.625M0 0v3h3M0 8.25A6 6 0 0 0 10.725 10.125M11.25 12.75v-3h-3" fill="none" stroke="#0d0e1a" stroke-width="1.5" stroke-linecap="round" stroke-linejoin="round"/><text id="nmlo8o8onnpvh" data-name="Label" transform="matrix(1 0 0 1 32.833333 12.5)" font-family="Inter, &quot;Helvetica Neue&quot;, Arial, sans-serif" font-size="14" font-weight="600" xml:space="preserve" fill="#0d0e1a"><tspan x="0" y="16.1">Exchange</tspan></text></g><g id="npb31ixmi6f6z" data-name="Button / Send" transform="matrix(1 0 0 1 233.333333 0)"><rect id="nkr7f7rixhb3y" data-name="Background" transform="matrix(1 0 0 1 0 0)" width="108.667" height="44" rx="22" fill="#ffffff"/><path id="ndljrc36ck9g4" data-name="Icon" transform="matrix(1 0 0 1 30.083333 18.25)" d="M0 7.5L7.5 0M1.5 0h6v6" fill="none" stroke="#0d0e1a" stroke-width="1.5" stroke-linecap="round" stroke-linejoin="round"/><text id="nvcl2xa1pwzrm" data-name="Label" transform="matrix(1 0 0 1 48.833333 12.5)" font-family="Inter, &quot;Helvetica Neue&quot;, Arial, sans-serif" font-size="14" font-weight="600" xml:space="preserve" fill="#0d0e1a"><tspan x="0" y="16.1">Send</tspan></text></g></g><g id="nf0mrhzkurnmf" data-name="Account Details" transform="matrix(1 0 0 1 24 320)"><rect id="nsvllw21bc6zn" data-name="Background" transform="matrix(1 0 0 1 0 0)" filter="url(#fx-nsvllw21bc6zn)" width="342" height="228" rx="20" fill="#ffffff"/><text id="nn1qandst3joo" data-name="Title" transform="matrix(1 0 0 1 20 18)" font-family="&quot;DM Sans&quot;, &quot;Helvetica Neue&quot;, Arial, sans-serif" font-size="16" font-weight="700" xml:space="preserve" fill="#1c1b2e"><tspan x="0" y="18.4">Account details</tspan></text><g id="nzlu8p2tjcmhr" data-name="Share" transform="matrix(1 0 0 1 262.125 19)"><path id="nwadisoxwy0bv" data-name="Icon" transform="matrix(1 0 0 1 0 1.625)" d="M4.875 8.25V0M1.875 3l3-3 3 3M0.75 5.625H0v6.75h9.75v-6.75h-0.75" fill="none" stroke="#3d5afe" stroke-width="1.5" stroke-linecap="round" stroke-linejoin="round"/><text id="n7c0g3n45enfe" data-name="Label" transform="matrix(1 0 0 1 19.875 0)" font-family="Inter, &quot;Helvetica Neue&quot;, Arial, sans-serif" font-size="14" font-weight="600" xml:space="preserve" fill="#3d5afe"><tspan x="0" y="16.1">Share</tspan></text></g><g id="n7cxcmiby0e1b" data-name="Detail / Beneficiary" transform="matrix(1 0 0 1 20 52)"><rect id="nnm9j8zq0yqo9" data-name="Divider" transform="matrix(1 0 0 1 0 0)" width="302" height="1" fill="#ecedf2"/><text id="n8c15txe66uso" data-name="Label" transform="matrix(1 0 0 1 0 9)" font-family="Inter, &quot;Helvetica Neue&quot;, Arial, sans-serif" font-size="12" font-weight="400" xml:space="preserve" fill="#6b6e82"><tspan x="0" y="13.8">Beneficiary</tspan></text><text id="nqbrwgqamki6u" data-name="Value" transform="matrix(1 0 0 1 0 27)" font-family="Inter, &quot;Helvetica Neue&quot;, Arial, sans-serif" font-size="15" font-weight="500" xml:space="preserve" fill="#1c1b2e"><tspan x="0" y="17.25">Emma Novak</tspan></text></g><g id="nliy52ov9t6g0" data-name="Detail / IBAN" transform="matrix(1 0 0 1 20 108)"><rect id="nf0a4elyoftm7" data-name="Divider" transform="matrix(1 0 0 1 0 0)" width="302" height="1" fill="#ecedf2"/><text id="nuck3lgcz84yb" data-name="Label" transform="matrix(1 0 0 1 0 9)" font-family="Inter, &quot;Helvetica Neue&quot;, Arial, sans-serif" font-size="12" font-weight="400" xml:space="preserve" fill="#6b6e82"><tspan x="0" y="13.8">IBAN</tspan></text><text id="n0nse7erpouze" data-name="Value" transform="matrix(1 0 0 1 0 27)" font-family="&quot;Roboto Mono&quot;, Menlo, Consolas, monospace" font-size="15" font-weight="500" xml:space="preserve" fill="#1c1b2e"><tspan x="0" y="18.25">NV24 0102 3344 5566 7788 99</tspan></text><path id="n1h8ez8pdw42l" data-name="Copy" transform="matrix(1 0 0 1 285.75 21.75)" d="M3.333333 3.333333h9.166667v9.166667h-9.166667zM9.166667 3.333333v-3.333333h-9.166667v9.166667h3.333333" fill="none" stroke="#a3a6b7" stroke-width="1.667" stroke-linecap="round" stroke-linejoin="round"/></g><g id="nkkcrq7tjkkqk" data-name="Detail / BIC / SWIFT" transform="matrix(1 0 0 1 20 164)"><rect id="ndy1qcn3x55lv" data-name="Divider" transform="matrix(1 0 0 1 0 0)" width="302" height="1" fill="#ecedf2"/><text id="nvjp0q5xp5m2l" data-name="Label" transform="matrix(1 0 0 1 0 9)" font-family="Inter, &quot;Helvetica Neue&quot;, Arial, sans-serif" font-size="12" font-weight="400" xml:space="preserve" fill="#6b6e82"><tspan x="0" y="13.8">BIC / SWIFT</tspan></text><text id="nx4gotgta9ehg" data-name="Value" transform="matrix(1 0 0 1 0 27)" font-family="&quot;Roboto Mono&quot;, Menlo, Consolas, monospace" font-size="15" font-weight="500" xml:space="preserve" fill="#1c1b2e"><tspan x="0" y="18.25">NOVAXXL1</tspan></text><path id="ncqemeep7ps6u" data-name="Copy" transform="matrix(1 0 0 1 285.75 21.75)" d="M3.333333 3.333333h9.166667v9.166667h-9.166667zM9.166667 3.333333v-3.333333h-9.166667v9.166667h3.333333" fill="none" stroke="#a3a6b7" stroke-width="1.667" stroke-linecap="round" stroke-linejoin="round"/></g></g><g id="nt7z50des3e59" data-name="Statements" transform="matrix(1 0 0 1 24 564)"><rect id="nwedyjg2zgfyy" data-name="Background" transform="matrix(1 0 0 1 0 0)" filter="url(#fx-nwedyjg2zgfyy)" width="342" height="236" rx="20" fill="#ffffff"/><text id="np9bqntk64pzl" data-name="Title" transform="matrix(1 0 0 1 20 18)" font-family="&quot;DM Sans&quot;, &quot;Helvetica Neue&quot;, Arial, sans-serif" font-size="16" font-weight="700" xml:space="preserve" fill="#1c1b2e"><tspan x="0" y="18.4">Statements</tspan></text><text id="nskcqw6sme7gf" data-name="Custom" transform="matrix(1 0 0 1 226 19)" font-family="Inter, &quot;Helvetica Neue&quot;, Arial, sans-serif" font-size="14" font-weight="600" xml:space="preserve" fill="#3d5afe"><tspan x="0" y="16.1">Custom range</tspan></text><g id="nrn19drv3oosd" data-name="Statement / August 2026" transform="matrix(1 0 0 1 20 52)"><rect id="nmw6mfvbch2g0" data-name="Divider" transform="matrix(1 0 0 1 0 0)" width="302" height="1" fill="#ecedf2"/><rect id="n5x69dpuxtrvy" data-name="Tile" transform="matrix(1 0 0 1 0 12)" width="36" height="36" rx="12" fill="#ecefff"/><path id="nlxd54sm97g0d" data-name="Icon" transform="matrix(1 0 0 1 13 22.916667)" d="M0 0h7.083333L10.833333 3.75v10.416666H0zM6.666667 0v4.166666h4.166666" fill="none" stroke="#3d5afe" stroke-width="1.667" stroke-linecap="round" stroke-linejoin="round"/><text id="nfx9972uixgzo" data-name="Month" transform="matrix(1 0 0 1 50 12)" font-family="Inter, &quot;Helvetica Neue&quot;, Arial, sans-serif" font-size="15" font-weight="500" xml:space="preserve" fill="#1c1b2e"><tspan x="0" y="17.25">August 2026</tspan></text><text id="ne752eupdwvhw" data-name="Detail" transform="matrix(1 0 0 1 50 32)" font-family="Inter, &quot;Helvetica Neue&quot;, Arial, sans-serif" font-size="12.5" font-weight="400" xml:space="preserve" fill="#6b6e82"><tspan x="0" y="13.875">PDF · 1–31 Aug · 38 transactions</tspan></text><path id="nayhk33tnlu2n" data-name="Download" transform="matrix(1 0 0 1 286.166667 23.333333)" d="M5.833333 0v9.166667M2.083333 5.416667L5.833333 9.166667l3.75-3.75M0 12.916667h11.666666" fill="none" stroke="#0d0e1a" stroke-width="1.667" stroke-linecap="round" stroke-linejoin="round"/></g><g id="nthmg3a39ge4v" data-name="Statement / July 2026" transform="matrix(1 0 0 1 20 112)"><rect id="nsapx0151mnkt" data-name="Divider" transform="matrix(1 0 0 1 0 0)" width="302" height="1" fill="#ecedf2"/><rect id="n9p5m60ovhumd" data-name="Tile" transform="matrix(1 0 0 1 0 12)" width="36" height="36" rx="12" fill="#ecefff"/><path id="n6wpfy7zted1m" data-name="Icon" transform="matrix(1 0 0 1 13 22.916667)" d="M0 0h7.083333L10.833333 3.75v10.416666H0zM6.666667 0v4.166666h4.166666" fill="none" stroke="#3d5afe" stroke-width="1.667" stroke-linecap="round" stroke-linejoin="round"/><text id="npahu6nh6duzo" data-name="Month" transform="matrix(1 0 0 1 50 12)" font-family="Inter, &quot;Helvetica Neue&quot;, Arial, sans-serif" font-size="15" font-weight="500" xml:space="preserve" fill="#1c1b2e"><tspan x="0" y="17.25">July 2026</tspan></text><text id="nw2cvvjhva6l3" data-name="Detail" transform="matrix(1 0 0 1 50 32)" font-family="Inter, &quot;Helvetica Neue&quot;, Arial, sans-serif" font-size="12.5" font-weight="400" xml:space="preserve" fill="#6b6e82"><tspan x="0" y="13.875">PDF · 1–31 Jul · 44 transactions</tspan></text><path id="n20hkykx27y6l" data-name="Download" transform="matrix(1 0 0 1 286.166667 23.333333)" d="M5.833333 0v9.166667M2.083333 5.416667L5.833333 9.166667l3.75-3.75M0 12.916667h11.666666" fill="none" stroke="#0d0e1a" stroke-width="1.667" stroke-linecap="round" stroke-linejoin="round"/></g><g id="nzxb4pafbbzl5" data-name="Statement / June 2026" transform="matrix(1 0 0 1 20 172)"><rect id="n7ost26692kx3" data-name="Divider" transform="matrix(1 0 0 1 0 0)" width="302" height="1" fill="#ecedf2"/><rect id="n7wlgfw00fvz7" data-name="Tile" transform="matrix(1 0 0 1 0 12)" width="36" height="36" rx="12" fill="#ecefff"/><path id="ntl3cuifm510m" data-name="Icon" transform="matrix(1 0 0 1 13 22.916667)" d="M0 0h7.083333L10.833333 3.75v10.416666H0zM6.666667 0v4.166666h4.166666" fill="none" stroke="#3d5afe" stroke-width="1.667" stroke-linecap="round" stroke-linejoin="round"/><text id="nraql6hmkxzvd" data-name="Month" transform="matrix(1 0 0 1 50 12)" font-family="Inter, &quot;Helvetica Neue&quot;, Arial, sans-serif" font-size="15" font-weight="500" xml:space="preserve" fill="#1c1b2e"><tspan x="0" y="17.25">June 2026</tspan></text><text id="nelbr2n5dlyq9" data-name="Detail" transform="matrix(1 0 0 1 50 32)" font-family="Inter, &quot;Helvetica Neue&quot;, Arial, sans-serif" font-size="12.5" font-weight="400" xml:space="preserve" fill="#6b6e82"><tspan x="0" y="13.875">PDF · 1–30 Jun · 41 transactions</tspan></text><path id="nwcueamho4it2" data-name="Download" transform="matrix(1 0 0 1 286.166667 23.333333)" d="M5.833333 0v9.166667M2.083333 5.416667L5.833333 9.166667l3.75-3.75M0 12.916667h11.666666" fill="none" stroke="#0d0e1a" stroke-width="1.667" stroke-linecap="round" stroke-linejoin="round"/></g></g><rect id="n54bftklajhtu" data-name="Home Indicator" transform="matrix(1 0 0 1 128 831)" width="134" height="5" rx="3" fill="#0d0e1a"/></g></g></svg>