<svg xmlns="http://www.w3.org/2000/svg" xmlns:xlink="http://www.w3.org/1999/xlink" width="390" height="844" viewBox="1470 3012 390 844"><defs><clipPath id="clip-nihrncksfmlmd"><rect width="390" height="844"/></clipPath><filter id="fx-nejndqu0o0au5" filterUnits="userSpaceOnUse" x="-31" y="-31" width="404" height="250"><feDropShadow in="SourceGraphic" dx="0" dy="4" stdDeviation="9" flood-color="#1c1b2e" flood-opacity="0.05"/></filter><linearGradient id="grad-npn1sqya00wy0-fill" x1="0" y1="0" x2="0" y2="1"><stop offset="0" stop-color="#7b61ff" stop-opacity="0.22"/><stop offset="1" stop-color="#7b61ff" stop-opacity="0"/></linearGradient><filter id="fx-nb2sz3qld9rqj" filterUnits="userSpaceOnUse" x="-17" y="-17" width="96" height="62"><feDropShadow in="SourceGraphic" dx="0" dy="2" stdDeviation="3" flood-color="#0d0e1a" flood-opacity="0.08"/></filter><filter id="fx-nxu1xlw074ttv" filterUnits="userSpaceOnUse" x="-31" y="-31" width="404" height="154"><feDropShadow in="SourceGraphic" dx="0" dy="4" stdDeviation="9" flood-color="#1c1b2e" flood-opacity="0.05"/></filter><filter id="fx-nusde9w14vlet" filterUnits="userSpaceOnUse" x="-31" y="-31" width="404" height="390"><feDropShadow in="SourceGraphic" dx="0" dy="4" stdDeviation="9" flood-color="#1c1b2e" flood-opacity="0.05"/></filter><filter id="fx-nq9id38z3vihh" filterUnits="userSpaceOnUse" x="-10" y="-10" width="410" height="104"><feDropShadow in="SourceGraphic" dx="0" dy="-1" stdDeviation="0" flood-color="#0d0e1a" flood-opacity="0.06"/></filter></defs><g id="nihrncksfmlmd" data-name="22 Crypto" transform="matrix(1 0 0 1 1470 3012)"><rect width="390" height="844" fill="#f4f5f8"/><g clip-path="url(#clip-nihrncksfmlmd)"><rect width="390" height="844" fill="#f4f5f8"/><g id="n2qfxoz0e4wfb" data-name="Status Bar" transform="matrix(1 0 0 1 30 14)"><text id="n27iydafaydg7" data-name="Time" transform="matrix(1 0 0 1 0 0)" font-family="Poppins, &quot;Helvetica Neue&quot;, Arial, sans-serif" font-size="15" font-weight="600" xml:space="preserve" fill="#0d0e1a"><tspan x="0" y="18.25">9:41</tspan></text><rect id="nxns3z7jptzm3" data-name="Signal 1" transform="matrix(1 0 0 1 258 11)" width="3" height="4" rx="1" fill="#0d0e1a"/><rect id="ntrkrg3p5tebv" data-name="Signal 2" transform="matrix(1 0 0 1 263 8.5)" width="3" height="6.5" rx="1" fill="#0d0e1a"/><rect id="nnq644ujcpnoy" data-name="Signal 3" transform="matrix(1 0 0 1 268 6)" width="3" height="9" rx="1" fill="#0d0e1a"/><rect id="n0aapnwswlu7d" data-name="Signal 4" transform="matrix(1 0 0 1 273 3.5)" width="3" height="11.5" rx="1" fill="#0d0e1a"/><path id="nifiech44fprq" data-name="Wi-Fi" transform="matrix(1 0 0 1 279.770833 3.742466)" d="M0 2.632534a9.916667 9.916667 0 0 1 13.458334 0M2.125 5.111701a6.729167 6.729167 0 0 1 9.208334 0M4.604167 7.590867a3.1875 3.1875 0 0 1 4.25 0M6.729167 10.070034h0.007083" fill="none" stroke="#0d0e1a" stroke-width="1.8" stroke-linecap="round" stroke-linejoin="round"/><rect id="nvhcl1hidgg2r" data-name="Battery" transform="matrix(1 0 0 1 300 3)" width="24" height="12" rx="3.5" fill="#0d0e1a" fill-opacity="0" stroke="#0d0e1a" stroke-opacity="0.4" stroke-width="1"/><rect id="ncb7c8zx7z98z" data-name="Battery Level" transform="matrix(1 0 0 1 302 5)" width="18" height="8" rx="2" fill="#0d0e1a"/><rect id="n0pwjyw6yq5py" data-name="Battery Cap" transform="matrix(1 0 0 1 325 7)" opacity="0.4" width="2" height="4" rx="1" fill="#0d0e1a"/></g><g id="nhbm4okw1fjuf" data-name="Page Title" transform="matrix(1 0 0 1 24 58)"><text id="nluo5kgno1xik" data-name="Title" transform="matrix(1 0 0 1 0 0)" font-family="&quot;DM Sans&quot;, &quot;Helvetica Neue&quot;, Arial, sans-serif" font-size="32" font-weight="700" letter-spacing="-0.64" xml:space="preserve" fill="#0d0e1a"><tspan x="0" y="36.8">Crypto</tspan></text><g id="nil30njhc4pvx" data-name="Search" transform="matrix(1 0 0 1 302 2)"><ellipse id="nvhx6lrnkc7kq" data-name="Background" transform="matrix(1 0 0 1 0 0)" cx="20" cy="20" rx="20" ry="20" fill="#ffffff"/><path id="n244x502iaxm3" data-name="Icon" transform="matrix(1 0 0 1 13.333333 13.333333)" d="M5.416667 0a5.416667 5.416667 0 1 0 0 10.833334 5.416667 5.416667 0 1 0 0-10.833334zM13.333334 13.333334l-3.833334-3.833334" fill="none" stroke="#0d0e1a" stroke-width="1.667" stroke-linecap="round" stroke-linejoin="round"/></g></g><g id="nl24lgm4baffn" data-name="Balance" transform="matrix(1 0 0 1 24 112)"><text id="nmw7b41bbhqty" data-name="Label" transform="matrix(1 0 0 1 0 0)" font-family="Inter, &quot;Helvetica Neue&quot;, Arial, sans-serif" font-size="14" font-weight="400" xml:space="preserve" fill="#6b6e82"><tspan x="0" y="16.1">Crypto balance</tspan></text><g id="nz1vqshrdpsiq" data-name="Value" transform="matrix(1 0 0 1 0 20)"><text id="n6etjow4ujmtc" data-name="Whole" transform="matrix(1 0 0 1 0 0)" font-family="&quot;DM Sans&quot;, &quot;Helvetica Neue&quot;, Arial, sans-serif" font-size="40" font-weight="700" letter-spacing="-0.8" xml:space="preserve" fill="#0d0e1a"><tspan x="0" y="46">€3,214</tspan></text><text id="n9fb3e8iennlx" data-name="Cents" transform="matrix(1 0 0 1 125 15.68)" font-family="&quot;DM Sans&quot;, &quot;Helvetica Neue&quot;, Arial, sans-serif" font-size="24" font-weight="700" letter-spacing="-0.24" xml:space="preserve" fill="#0d0e1a"><tspan x="0" y="27.6">.60</tspan></text></g><g id="niq8n1cbwlddx" data-name="Change" transform="matrix(1 0 0 1 0 74)"><rect id="nukacfy8z8alp" data-name="Background" transform="matrix(1 0 0 1 0 0)" width="159" height="26" rx="13" fill="#e2f6ec"/><path id="n89z2dbqtdm4b" data-name="Icon" transform="matrix(1 0 0 1 11 9.5)" d="M3 7V0M0 3l3-3 3 3" fill="none" stroke="#0fa968" stroke-width="1.8" stroke-linecap="round" stroke-linejoin="round"/><text id="ntdtu4mgmn7f2" data-name="Label" transform="matrix(1 0 0 1 23 5)" font-family="Inter, &quot;Helvetica Neue&quot;, Arial, sans-serif" font-size="12" font-weight="600" xml:space="preserve" fill="#0fa968"><tspan x="0" y="13.8">+€86.40 (2.76%) 24h</tspan></text></g></g><g id="ngxgn88bsqhfj" data-name="Balance Chart" transform="matrix(1 0 0 1 24 228)"><rect id="nejndqu0o0au5" data-name="Background" transform="matrix(1 0 0 1 0 0)" filter="url(#fx-nejndqu0o0au5)" width="342" height="188" rx="20" fill="#ffffff"/><g id="n1uq17j4bbmbd" data-name="Grid" transform="matrix(1 0 0 1 16 47.666667)"><path id="n6xjxmavx6uyu" data-name="Grid / €3.1k" transform="matrix(1 0 0 1 0 50.333333)" d="M0 0H278" fill="none" stroke="#ecedf2" stroke-width="1" stroke-linecap="round" stroke-linejoin="round"/><text id="nwl2fsfmhap2d" data-name="Axis / €3.1k" transform="matrix(1 0 0 1 284 43.333333)" font-family="Inter, &quot;Helvetica Neue&quot;, Arial, sans-serif" font-size="10.5" font-weight="400" xml:space="preserve" fill="#a3a6b7"><tspan x="0" y="11.575">€3.1k</tspan></text><path id="nw1e94sk0ohow" data-name="Grid / €3.2k" transform="matrix(1 0 0 1 0 7)" d="M0 0H278" fill="none" stroke="#ecedf2" stroke-width="1" stroke-linecap="round" stroke-linejoin="round"/><text id="ndc5cn0p6ur9h" data-name="Axis / €3.2k" transform="matrix(1 0 0 1 284 0)" font-family="Inter, &quot;Helvetica Neue&quot;, Arial, sans-serif" font-size="10.5" font-weight="400" xml:space="preserve" fill="#a3a6b7"><tspan x="0" y="11.575">€3.2k</tspan></text></g><g id="nbbc44vzyd3o5" data-name="Series" transform="matrix(1 0 0 1 16 27.202722)"><path id="npn1sqya00wy0" data-name="Area" transform="matrix(1 0 0 1 0 0)" d="M0 58.577278C1.73 60.247278 6.14 68.077278 9.59 67.847278 13.04 67.627278 15.72 57.237278 19.17 57.327278 22.62 57.417278 25.31 68.077278 28.76 68.327278 32.21 68.577278 34.89 61.637278 38.34 58.707278 41.8 55.777278 44.48 54.247278 47.93 52.047278 51.38 49.837278 54.07 46.137278 57.52 46.447278 60.97 46.767278 63.65 54.727278 67.1 53.777278 70.55 52.837278 73.24 41.417278 76.69 41.187278 80.14 40.967278 82.82 51.177278 86.28 52.517278 89.73 53.857278 92.41 50.397278 95.86 48.637278 99.31 46.887278 102 44.277278 105.45 42.767278 108.9 41.257278 111.58 39.497278 115.03 40.257278 118.49 41.007278 121.17 48.117278 124.62 46.957278 128.07 45.797278 130.76 34.987278 134.21 33.807278 137.66 32.627278 140.34 40.447278 143.79 40.397278 147.24 40.357278 149.93 35.537278 153.38 33.547278 156.83 31.567278 159.51 29.377278 162.97 29.377278 166.42 29.377278 169.1 32.967278 172.55 33.547278 176 34.127278 178.69 34.917278 182.14 32.597278 185.59 30.277278 188.27 24.797278 191.72 20.677278 195.18 16.557278 197.86 11.427278 201.31 9.717278 204.76 8.017278 207.45 12.957278 210.9 11.207278 214.35 9.457278 217.03 0.307278 220.48 0.007278 223.93-0.292722 226.62 8.777278 230.07 9.547278 233.52 10.317278 236.2 4.317278 239.66 4.297278 243.11 4.287278 245.79 6.057278 249.24 9.487278 252.69 12.907278 255.38 22.867278 258.83 23.327278 262.28 23.787278 264.96 12.437278 268.41 12.037278 271.86 11.647278 276.27 19.497278 278 21.137278L278 96.797278 0 96.797278Z" fill="url(#grad-npn1sqya00wy0-fill)"/><path id="n3ls76dhsig7d" data-name="Line" transform="matrix(1 0 0 1 0 0)" d="M0 58.577278C1.73 60.247278 6.14 68.077278 9.59 67.847278 13.04 67.627278 15.72 57.237278 19.17 57.327278 22.62 57.417278 25.31 68.077278 28.76 68.327278 32.21 68.577278 34.89 61.637278 38.34 58.707278 41.8 55.777278 44.48 54.247278 47.93 52.047278 51.38 49.837278 54.07 46.137278 57.52 46.447278 60.97 46.767278 63.65 54.727278 67.1 53.777278 70.55 52.837278 73.24 41.417278 76.69 41.187278 80.14 40.967278 82.82 51.177278 86.28 52.517278 89.73 53.857278 92.41 50.397278 95.86 48.637278 99.31 46.887278 102 44.277278 105.45 42.767278 108.9 41.257278 111.58 39.497278 115.03 40.257278 118.49 41.007278 121.17 48.117278 124.62 46.957278 128.07 45.797278 130.76 34.987278 134.21 33.807278 137.66 32.627278 140.34 40.447278 143.79 40.397278 147.24 40.357278 149.93 35.537278 153.38 33.547278 156.83 31.567278 159.51 29.377278 162.97 29.377278 166.42 29.377278 169.1 32.967278 172.55 33.547278 176 34.127278 178.69 34.917278 182.14 32.597278 185.59 30.277278 188.27 24.797278 191.72 20.677278 195.18 16.557278 197.86 11.427278 201.31 9.717278 204.76 8.017278 207.45 12.957278 210.9 11.207278 214.35 9.457278 217.03 0.307278 220.48 0.007278 223.93-0.292722 226.62 8.777278 230.07 9.547278 233.52 10.317278 236.2 4.317278 239.66 4.297278 243.11 4.287278 245.79 6.057278 249.24 9.487278 252.69 12.907278 255.38 22.867278 258.83 23.327278 262.28 23.787278 264.96 12.437278 268.41 12.037278 271.86 11.647278 276.27 19.497278 278 21.137278" fill="none" stroke="#7b61ff" stroke-width="2.5" stroke-linecap="round" stroke-linejoin="round"/></g><ellipse id="nv0e372xj8auy" data-name="Now" transform="matrix(1 0 0 1 289 43.34)" cx="5" cy="5" rx="5" ry="5" fill="#7b61ff" stroke="#ffffff" stroke-width="2"/><g id="nq8ej8cs885w8" data-name="Range" transform="matrix(1 0 0 1 12 138)"><rect id="nptlbjt02tmwj" data-name="Track" transform="matrix(1 0 0 1 0 0)" width="318" height="36" rx="18" fill="#e9eaf0"/><rect id="nb2sz3qld9rqj" data-name="Selection" transform="matrix(1 0 0 1 4 4)" filter="url(#fx-nb2sz3qld9rqj)" width="62" height="28" rx="14" fill="#ffffff"/><text id="n0zuys5qcwmap" data-name="Label / 24H" transform="matrix(1 0 0 1 22.5 10)" font-family="Inter, &quot;Helvetica Neue&quot;, Arial, sans-serif" font-size="12" font-weight="600" xml:space="preserve" fill="#0d0e1a"><tspan x="0" y="13.8">24H</tspan></text><text id="ntuzznwoi07ss" data-name="Label / 1W" transform="matrix(1 0 0 1 88 10)" font-family="Inter, &quot;Helvetica Neue&quot;, Arial, sans-serif" font-size="12" font-weight="500" xml:space="preserve" fill="#6b6e82"><tspan x="0" y="13.8">1W</tspan></text><text id="nw21qi5ctytle" data-name="Label / 1M" transform="matrix(1 0 0 1 151 10)" font-family="Inter, &quot;Helvetica Neue&quot;, Arial, sans-serif" font-size="12" font-weight="500" xml:space="preserve" fill="#6b6e82"><tspan x="0" y="13.8">1M</tspan></text><text id="nzwzc5epkfhvf" data-name="Label / 1Y" transform="matrix(1 0 0 1 214 10)" font-family="Inter, &quot;Helvetica Neue&quot;, Arial, sans-serif" font-size="12" font-weight="500" xml:space="preserve" fill="#6b6e82"><tspan x="0" y="13.8">1Y</tspan></text><text id="nqzzplrk8kg55" data-name="Label / All" transform="matrix(1 0 0 1 275.5 10)" font-family="Inter, &quot;Helvetica Neue&quot;, Arial, sans-serif" font-size="12" font-weight="500" xml:space="preserve" fill="#6b6e82"><tspan x="0" y="13.8">All</tspan></text></g></g><g id="nnsgeomg1aiov" data-name="Allocation" transform="matrix(1 0 0 1 24 432)"><rect id="nxu1xlw074ttv" data-name="Background" transform="matrix(1 0 0 1 0 0)" filter="url(#fx-nxu1xlw074ttv)" width="342" height="92" rx="20" fill="#ffffff"/><g id="ni2vvrcadpetc" data-name="Bar" transform="matrix(1 0 0 1 16 44)"><path id="nwgifst3udcfh" data-name="Share / AUR" transform="matrix(1 0 0 1 0 0)" d="M5 0 L175.6622 0 L175.6622 10 L5 10 A5 5 0 0 1 0 5 L0 5 A5 5 0 0 1 5 0 Z" fill="#e2a93b"/><rect id="nor0upb7lhkbb" data-name="Share / NMB" transform="matrix(1 0 0 1 177.662229 0)" width="72.101" height="10" fill="#3b82f6"/><rect id="ns89zx1ccgf7w" data-name="Share / SLC" transform="matrix(1 0 0 1 251.762894 0)" width="32.35" height="10" fill="#14b8a6"/><rect id="nnbylejrp1h3l" data-name="Share / TDL" transform="matrix(1 0 0 1 286.113047 0)" width="14.577" height="10" fill="#8b5cf6"/><path id="n67zubp10gxzy" data-name="Share / EMB" transform="matrix(1 0 0 1 302.690226 0)" d="M0 0 L2.3098 0 A5 5 0 0 1 7.3098 5 L7.3098 5 A5 5 0 0 1 2.3098 10 L0 10 L0 0 Z" fill="#f97316"/></g><g id="n9uzwrp6zprlr" data-name="Legend" transform="matrix(1 0 0 1 16 65.5)"><g id="nlnnx9u09nxqc" data-name="Legend / AUR" transform="matrix(1 0 0 1 0 0)"><ellipse id="ngm2v2rttrfjo" data-name="Dot" transform="matrix(1 0 0 1 0 3.5)" cx="4" cy="4" rx="4" ry="4" fill="#e2a93b"/><text id="n55fvyeucpcoi" data-name="Label" transform="matrix(1 0 0 1 12 0)" font-family="Inter, &quot;Helvetica Neue&quot;, Arial, sans-serif" font-size="11" font-weight="500" xml:space="preserve" fill="#30323f"><tspan x="0" y="12.65">AUR 57%</tspan></text></g><g id="nmugxw16rfitf" data-name="Legend / NMB" transform="matrix(1 0 0 1 65.5 0)"><ellipse id="nb283yvsbdrz8" data-name="Dot" transform="matrix(1 0 0 1 0 3.5)" cx="4" cy="4" rx="4" ry="4" fill="#3b82f6"/><text id="nvu8kulc7k5p4" data-name="Label" transform="matrix(1 0 0 1 12 0)" font-family="Inter, &quot;Helvetica Neue&quot;, Arial, sans-serif" font-size="11" font-weight="500" xml:space="preserve" fill="#30323f"><tspan x="0" y="12.65">NMB 24%</tspan></text></g><g id="nl3e6pvgh5tj4" data-name="Legend / SLC" transform="matrix(1 0 0 1 135 0)"><ellipse id="nknopi0qbow4q" data-name="Dot" transform="matrix(1 0 0 1 0 3.5)" cx="4" cy="4" rx="4" ry="4" fill="#14b8a6"/><text id="n07m6gy4e1w2g" data-name="Label" transform="matrix(1 0 0 1 12 0)" font-family="Inter, &quot;Helvetica Neue&quot;, Arial, sans-serif" font-size="11" font-weight="500" xml:space="preserve" fill="#30323f"><tspan x="0" y="12.65">SLC 11%</tspan></text></g><g id="nofnig4m6lsl0" data-name="Legend / TDL" transform="matrix(1 0 0 1 195.5 0)"><ellipse id="n87sygym15tk0" data-name="Dot" transform="matrix(1 0 0 1 0 3.5)" cx="4" cy="4" rx="4" ry="4" fill="#8b5cf6"/><text id="n2lesexb2b8n1" data-name="Label" transform="matrix(1 0 0 1 12 0)" font-family="Inter, &quot;Helvetica Neue&quot;, Arial, sans-serif" font-size="11" font-weight="500" xml:space="preserve" fill="#30323f"><tspan x="0" y="12.65">TDL 5%</tspan></text></g><g id="njofmmv4sj9i6" data-name="Legend / EMB" transform="matrix(1 0 0 1 253 0)"><ellipse id="nkbfofc81ltib" data-name="Dot" transform="matrix(1 0 0 1 0 3.5)" cx="4" cy="4" rx="4" ry="4" fill="#f97316"/><text id="nrgvzt0uklytv" data-name="Label" transform="matrix(1 0 0 1 12 0)" font-family="Inter, &quot;Helvetica Neue&quot;, Arial, sans-serif" font-size="11" font-weight="500" xml:space="preserve" fill="#30323f"><tspan x="0" y="12.65">EMB 3%</tspan></text></g></g><text id="nu6h5r7ft7o5s" data-name="Title" transform="matrix(1 0 0 1 16 14)" font-family="&quot;DM Sans&quot;, &quot;Helvetica Neue&quot;, Arial, sans-serif" font-size="14" font-weight="700" xml:space="preserve" fill="#1c1b2e"><tspan x="0" y="16.1">Allocation</tspan></text><text id="ne5xb08wradoo" data-name="Count" transform="matrix(1 0 0 1 275 15)" font-family="Inter, &quot;Helvetica Neue&quot;, Arial, sans-serif" font-size="13" font-weight="400" xml:space="preserve" fill="#6b6e82"><tspan x="0" y="14.95">5 assets</tspan></text></g><g id="ntw4odo1ogpda" data-name="Section / Your assets" transform="matrix(1 0 0 1 24 544)"><text id="nku0piypok9ro" data-name="Title" transform="matrix(1 0 0 1 0 0)" font-family="&quot;DM Sans&quot;, &quot;Helvetica Neue&quot;, Arial, sans-serif" font-size="18" font-weight="700" letter-spacing="-0.18" xml:space="preserve" fill="#0d0e1a"><tspan x="0" y="20.7">Your assets</tspan></text><text id="n5gx6ywpuwixj" data-name="Action" transform="matrix(1 0 0 1 315 2.5)" font-family="Inter, &quot;Helvetica Neue&quot;, Arial, sans-serif" font-size="14" font-weight="600" xml:space="preserve" fill="#3d5afe"><tspan x="0" y="16.1">Buy</tspan></text></g><g id="nw5csgz9n72va" data-name="Assets" transform="matrix(1 0 0 1 24 578)"><rect id="nusde9w14vlet" data-name="Background" transform="matrix(1 0 0 1 0 0)" filter="url(#fx-nusde9w14vlet)" width="342" height="328" rx="20" fill="#ffffff"/><g id="nnvtf73iwoqll" data-name="Asset / Aurum" transform="matrix(1 0 0 1 16 14)"><g id="nif9smj7trfd3" data-name="Coin / AUR" transform="matrix(1 0 0 1 0 0)"><ellipse id="np79t7tzx66n8" data-name="Disc" transform="matrix(1 0 0 1 0 0)" cx="22" cy="22" rx="22" ry="22" fill="#e2a93b"/><ellipse id="nwc1r5khio4gf" data-name="Rim" transform="matrix(1 0 0 1 3 3)" cx="19" cy="19" rx="19" ry="19" fill="#ffffff" fill-opacity="0" stroke="#ffffff" stroke-opacity="0.35" stroke-width="1.2"/><path id="nzcfyh347s0zo" data-name="Glyph" transform="matrix(1 0 0 1 16.454167 16.454167)" d="M5.545833 0a5.545833 5.545833 0 1 0 0 11.091666 5.545833 5.545833 0 1 0 0-11.091666zM5.545833 3.529166v4.033334" fill="none" stroke="#ffffff" stroke-width="2" stroke-linecap="round" stroke-linejoin="round"/></g><text id="nd0v98z0k8egv" data-name="Name" transform="matrix(1 0 0 1 56 3)" font-family="Inter, &quot;Helvetica Neue&quot;, Arial, sans-serif" font-size="15" font-weight="600" xml:space="preserve" fill="#1c1b2e"><tspan x="0" y="17.25">Aurum</tspan></text><text id="nsqf6y7otieut" data-name="Holding" transform="matrix(1 0 0 1 56 24)" font-family="Inter, &quot;Helvetica Neue&quot;, Arial, sans-serif" font-size="13" font-weight="400" xml:space="preserve" fill="#6b6e82"><tspan x="0" y="14.95">0.0352 AUR</tspan></text><text id="nyhmpxuipim1z" data-name="Value" transform="matrix(1 0 0 1 236 2)" font-family="Inter, &quot;Helvetica Neue&quot;, Arial, sans-serif" font-size="15" font-weight="600" xml:space="preserve" fill="#1c1b2e"><tspan x="0" y="17.25">€1,842.30</tspan></text><text id="n92h0hdez4nvt" data-name="Change" transform="matrix(1 0 0 1 263 24)" font-family="Inter, &quot;Helvetica Neue&quot;, Arial, sans-serif" font-size="13" font-weight="600" xml:space="preserve" fill="#0fa968"><tspan x="0" y="14.95">+3.12%</tspan></text></g><g id="ntjzgvqj4zhle" data-name="Asset / Nimbus" transform="matrix(1 0 0 1 16 68)"><rect id="nl8x2nghwj2ds" data-name="Divider" transform="matrix(1 0 0 1 56 0)" width="254" height="1" fill="#ecedf2"/><g id="njkq84esqauij" data-name="Coin / NMB" transform="matrix(1 0 0 1 0 10)"><ellipse id="nvhfj94d944wt" data-name="Disc" transform="matrix(1 0 0 1 0 0)" cx="22" cy="22" rx="22" ry="22" fill="#3b82f6"/><ellipse id="n0p56m6wio43n" data-name="Rim" transform="matrix(1 0 0 1 3 3)" cx="19" cy="19" rx="19" ry="19" fill="#ffffff" fill-opacity="0" stroke="#ffffff" stroke-opacity="0.35" stroke-width="1.2"/><path id="n2r0p2dwt7uti" data-name="Glyph" transform="matrix(1 0 0 1 15.95 16.454167)" d="M6.05 0l6.05 10.5875H0z" fill="none" stroke="#ffffff" stroke-width="2" stroke-linecap="round" stroke-linejoin="round"/></g><text id="n1d8o6qejyfwc" data-name="Name" transform="matrix(1 0 0 1 56 13)" font-family="Inter, &quot;Helvetica Neue&quot;, Arial, sans-serif" font-size="15" font-weight="600" xml:space="preserve" fill="#1c1b2e"><tspan x="0" y="17.25">Nimbus</tspan></text><text id="nqp2sd59ih72i" data-name="Holding" transform="matrix(1 0 0 1 56 34)" font-family="Inter, &quot;Helvetica Neue&quot;, Arial, sans-serif" font-size="13" font-weight="400" xml:space="preserve" fill="#6b6e82"><tspan x="0" y="14.95">0.3150 NMB</tspan></text><text id="nlcvh9jk5gfus" data-name="Value" transform="matrix(1 0 0 1 247 12)" font-family="Inter, &quot;Helvetica Neue&quot;, Arial, sans-serif" font-size="15" font-weight="600" xml:space="preserve" fill="#1c1b2e"><tspan x="0" y="17.25">€768.40</tspan></text><text id="n7x1gkzggjzcs" data-name="Change" transform="matrix(1 0 0 1 260 34)" font-family="Inter, &quot;Helvetica Neue&quot;, Arial, sans-serif" font-size="13" font-weight="600" xml:space="preserve" fill="#0fa968"><tspan x="0" y="14.95">+2.05%</tspan></text></g><g id="nok73vvbjkjrr" data-name="Asset / Solace" transform="matrix(1 0 0 1 16 132)"><rect id="n6wy6s2ne8r1e" data-name="Divider" transform="matrix(1 0 0 1 56 0)" width="254" height="1" fill="#ecedf2"/><g id="nsczi9qdxkm24" data-name="Coin / SLC" transform="matrix(1 0 0 1 0 10)"><ellipse id="nms0uybv6i4zo" data-name="Disc" transform="matrix(1 0 0 1 0 0)" cx="22" cy="22" rx="22" ry="22" fill="#14b8a6"/><ellipse id="n2wmhouqj5kgb" data-name="Rim" transform="matrix(1 0 0 1 3 3)" cx="19" cy="19" rx="19" ry="19" fill="#ffffff" fill-opacity="0" stroke="#ffffff" stroke-opacity="0.35" stroke-width="1.2"/><path id="nf88mxa6btror" data-name="Glyph" transform="matrix(1 0 0 1 16.353333 15.445833)" d="M5.646667 0l5.646667 3.277084v6.554166L5.646667 13.108334l-5.646667-3.277084v-6.554166z" fill="none" stroke="#ffffff" stroke-width="2" stroke-linecap="round" stroke-linejoin="round"/></g><text id="n9peth5sl9pzx" data-name="Name" transform="matrix(1 0 0 1 56 13)" font-family="Inter, &quot;Helvetica Neue&quot;, Arial, sans-serif" font-size="15" font-weight="600" xml:space="preserve" fill="#1c1b2e"><tspan x="0" y="17.25">Solace</tspan></text><text id="ntz4n98v1x527" data-name="Holding" transform="matrix(1 0 0 1 56 34)" font-family="Inter, &quot;Helvetica Neue&quot;, Arial, sans-serif" font-size="13" font-weight="400" xml:space="preserve" fill="#6b6e82"><tspan x="0" y="14.95">2.40 SLC</tspan></text><text id="nqrff1he5ufvu" data-name="Value" transform="matrix(1 0 0 1 247 12)" font-family="Inter, &quot;Helvetica Neue&quot;, Arial, sans-serif" font-size="15" font-weight="600" xml:space="preserve" fill="#1c1b2e"><tspan x="0" y="17.25">€356.20</tspan></text><text id="nm4y8reaztl9b" data-name="Change" transform="matrix(1 0 0 1 261 34)" font-family="Inter, &quot;Helvetica Neue&quot;, Arial, sans-serif" font-size="13" font-weight="600" xml:space="preserve" fill="#ef4438"><tspan x="0" y="14.95">−1.34%</tspan></text></g><g id="n6rao68opgc15" data-name="Asset / Tidal" transform="matrix(1 0 0 1 16 196)"><rect id="nahas1piqw1mc" data-name="Divider" transform="matrix(1 0 0 1 56 0)" width="254" height="1" fill="#ecedf2"/><g id="nyeaky7e4v3c3" data-name="Coin / TDL" transform="matrix(1 0 0 1 0 10)"><ellipse id="nhv1ogmru2m6b" data-name="Disc" transform="matrix(1 0 0 1 0 0)" cx="22" cy="22" rx="22" ry="22" fill="#8b5cf6"/><ellipse id="n7ynu5wis8h92" data-name="Rim" transform="matrix(1 0 0 1 3 3)" cx="19" cy="19" rx="19" ry="19" fill="#ffffff" fill-opacity="0" stroke="#ffffff" stroke-opacity="0.35" stroke-width="1.2"/><path id="ng8w6mt3geerz" data-name="Glyph" transform="matrix(1 0 0 1 15.445833 18.470833)" d="M0 1.5125c2.218333-2.016667 4.335833-2.016667 6.554167 0s4.335833 2.016667 6.554167 0M0 6.05c2.218333-2.016667 4.335833-2.016667 6.554167 0s4.335833 2.016667 6.554167 0" fill="none" stroke="#ffffff" stroke-width="2" stroke-linecap="round" stroke-linejoin="round"/></g><text id="n5mbnm3ejgcnw" data-name="Name" transform="matrix(1 0 0 1 56 13)" font-family="Inter, &quot;Helvetica Neue&quot;, Arial, sans-serif" font-size="15" font-weight="600" xml:space="preserve" fill="#1c1b2e"><tspan x="0" y="17.25">Tidal</tspan></text><text id="nirt2nx3q4az4" data-name="Holding" transform="matrix(1 0 0 1 56 34)" font-family="Inter, &quot;Helvetica Neue&quot;, Arial, sans-serif" font-size="13" font-weight="400" xml:space="preserve" fill="#6b6e82"><tspan x="0" y="14.95">1,250 TDL</tspan></text><text id="nfluuaq8x63ho" data-name="Value" transform="matrix(1 0 0 1 254 12)" font-family="Inter, &quot;Helvetica Neue&quot;, Arial, sans-serif" font-size="15" font-weight="600" xml:space="preserve" fill="#1c1b2e"><tspan x="0" y="17.25">€171.90</tspan></text><text id="nrnzisyov5sd2" data-name="Change" transform="matrix(1 0 0 1 259 34)" font-family="Inter, &quot;Helvetica Neue&quot;, Arial, sans-serif" font-size="13" font-weight="600" xml:space="preserve" fill="#0fa968"><tspan x="0" y="14.95">+4.80%</tspan></text></g><g id="nz7xjrj34hpid" data-name="Asset / Ember" transform="matrix(1 0 0 1 16 260)"><rect id="ney0t44mfzzcg" data-name="Divider" transform="matrix(1 0 0 1 56 0)" width="254" height="1" fill="#ecedf2"/><g id="n85qzakjb6v9j" data-name="Coin / EMB" transform="matrix(1 0 0 1 0 10)"><ellipse id="n0dxz8y20egat" data-name="Disc" transform="matrix(1 0 0 1 0 0)" cx="22" cy="22" rx="22" ry="22" fill="#f97316"/><ellipse id="n6tsj006v53l0" data-name="Rim" transform="matrix(1 0 0 1 3 3)" cx="19" cy="19" rx="19" ry="19" fill="#ffffff" fill-opacity="0" stroke="#ffffff" stroke-opacity="0.35" stroke-width="1.2"/><path id="nwexkorw1q4x2" data-name="Glyph" transform="matrix(1 0 0 1 15.95 15.445833)" d="M6.05 0l6.05 6.554167-6.05 6.554167-6.05-6.554167z" fill="none" stroke="#ffffff" stroke-width="2" stroke-linecap="round" stroke-linejoin="round"/></g><text id="nyyyxz5z1mxxb" data-name="Name" transform="matrix(1 0 0 1 56 13)" font-family="Inter, &quot;Helvetica Neue&quot;, Arial, sans-serif" font-size="15" font-weight="600" xml:space="preserve" fill="#1c1b2e"><tspan x="0" y="17.25">Ember</tspan></text><text id="n141p2nbtw6cu" data-name="Holding" transform="matrix(1 0 0 1 56 34)" font-family="Inter, &quot;Helvetica Neue&quot;, Arial, sans-serif" font-size="13" font-weight="400" xml:space="preserve" fill="#6b6e82"><tspan x="0" y="14.95">310 EMB</tspan></text><text id="nvnahdpy7li7o" data-name="Value" transform="matrix(1 0 0 1 258 12)" font-family="Inter, &quot;Helvetica Neue&quot;, Arial, sans-serif" font-size="15" font-weight="600" xml:space="preserve" fill="#1c1b2e"><tspan x="0" y="17.25">€75.80</tspan></text><text id="nur4fis55p4p6" data-name="Change" transform="matrix(1 0 0 1 259 34)" font-family="Inter, &quot;Helvetica Neue&quot;, Arial, sans-serif" font-size="13" font-weight="600" xml:space="preserve" fill="#ef4438"><tspan x="0" y="14.95">−0.62%</tspan></text></g></g><g id="nr735orp50uf2" data-name="Tab Bar" transform="matrix(1 0 0 1 0 760)"><rect id="nq9id38z3vihh" data-name="Background" transform="matrix(1 0 0 1 0 0)" filter="url(#fx-nq9id38z3vihh)" width="390" height="84" fill="#ffffff"/><g id="ndt5lotrpjyjg" data-name="Tab / Home" transform="matrix(1 0 0 1 29.4 13.5)"><path id="ne6dbh1k3auw4" data-name="Icon" transform="matrix(1 0 0 1 7.5 0)" d="M0 7L8.5 0l8.5 7M2 5.5v11.5h13V5.5M6.5 17V11.5h4v5.5" fill="none" stroke="#a3a6b7" stroke-width="1.9" stroke-linecap="round" stroke-linejoin="round"/><text id="nlm71ezy59prp" data-name="Label" transform="matrix(1 0 0 1 0 24.5)" font-family="Inter, &quot;Helvetica Neue&quot;, Arial, sans-serif" font-size="11" font-weight="500" xml:space="preserve" fill="#6b6e82"><tspan x="0" y="12.65">Home</tspan></text></g><g id="nu78ro9og3mf5" data-name="Tab / Invest" transform="matrix(1 0 0 1 104.2 17.5)"><path id="nujldcdt2wfe7" data-name="Icon" transform="matrix(1 0 0 1 7.5 0)" d="M0 10l5.5-5.5 4 3.5 7.5-8M12 0h4.5V4.5" fill="none" stroke="#a3a6b7" stroke-width="1.9" stroke-linecap="round" stroke-linejoin="round"/><text id="n89mxqqr1yac3" data-name="Label" transform="matrix(1 0 0 1 0 20.5)" font-family="Inter, &quot;Helvetica Neue&quot;, Arial, sans-serif" font-size="11" font-weight="500" xml:space="preserve" fill="#6b6e82"><tspan x="0" y="12.65">Invest</tspan></text></g><g id="n89n9kuf505pp" data-name="Tab / Payments" transform="matrix(1 0 0 1 169 14.5)"><path id="nwr8d6ea1k04w" data-name="Icon" transform="matrix(1 0 0 1 18 0)" d="M0 3.5h15M11.5 0L15 3.5l-3.5 3.5M16 11.5H1M4.5 8L1 11.5l3.5 3.5" fill="none" stroke="#a3a6b7" stroke-width="1.9" stroke-linecap="round" stroke-linejoin="round"/><text id="nre3glswzox5c" data-name="Label" transform="matrix(1 0 0 1 0 23.5)" font-family="Inter, &quot;Helvetica Neue&quot;, Arial, sans-serif" font-size="11" font-weight="500" xml:space="preserve" fill="#6b6e82"><tspan x="0" y="12.65">Payments</tspan></text></g><g id="nk7r1qqnb5mm3" data-name="Tab / Crypto" transform="matrix(1 0 0 1 251.3 12.8)"><path id="nrfxy6gifapfc" data-name="Icon" transform="matrix(1 0 0 1 10.5 0)" d="M8 0l8 4.6v9.2l-8 4.6-8-4.6V4.6zM8 5.2l4 4-4 4-4-4z" fill="none" stroke="#3d5afe" stroke-width="2.2" stroke-linecap="round" stroke-linejoin="round"/><text id="ndwslltufx6sj" data-name="Label" transform="matrix(1 0 0 1 0 25.2)" font-family="Inter, &quot;Helvetica Neue&quot;, Arial, sans-serif" font-size="11" font-weight="600" xml:space="preserve" fill="#3d5afe"><tspan x="0" y="12.65">Crypto</tspan></text></g><g id="n7i2jcnyx7kcs" data-name="Tab / Hub" transform="matrix(1 0 0 1 333.6 14)"><path id="n3x257yf2z09l" data-name="Icon" transform="matrix(1 0 0 1 3 0)" d="M0 0h6.5v6.5H0zM9.5 0H16v6.5h-6.5zM0 9.5h6.5V16H0zM9.5 9.5H16V16h-6.5z" fill="none" stroke="#a3a6b7" stroke-width="1.9" stroke-linecap="round" stroke-linejoin="round"/><text id="nkemxq14cchk2" data-name="Label" transform="matrix(1 0 0 1 0 24)" font-family="Inter, &quot;Helvetica Neue&quot;, Arial, sans-serif" font-size="11" font-weight="500" xml:space="preserve" fill="#6b6e82"><tspan x="0" y="12.65">Hub</tspan></text></g></g><rect id="nvj9cwch4rgae" data-name="Home Indicator" transform="matrix(1 0 0 1 128 831)" width="134" height="5" rx="3" fill="#0d0e1a"/></g></g></svg>